<svg viewBox="0 0 200 200" xmlns="http://www.w3.org/2000/svg">
  <!-- Background (transparent) -->
  
  <!-- Body -->
  <rect x="60" y="80" width="80" height="60" fill="#FF4040"/>
  
  <!-- Eyes -->
  <rect x="70" y="70" width="20" height="20" fill="#FF4040"/>
  <rect x="110" y="70" width="20" height="20" fill="#FF4040"/>
  <rect x="75" y="75" width="10" height="10" fill="black"/>
  <rect x="115" y="75" width="10" height="10" fill="black"/>
  
  <!-- Claws -->
  <rect x="40" y="90" width="20" height="30" fill="#FF4040"/>
  <rect x="140" y="90" width="20" height="30" fill="#FF4040"/>
  <rect x="30" y="100" width="10" height="20" fill="#FF4040"/>
  <rect x="160" y="100" width="10" height="20" fill="#FF4040"/>
  
  <!-- Legs -->
  <rect x="50" y="140" width="10" height="20" fill="#FF4040"/>
  <rect x="70" y="140" width="10" height="20" fill="#FF4040"/>
  <rect x="90" y="140" width="10" height="20" fill="#FF4040"/>
  <rect x="100" y="140" width="10" height="20" fill="#FF4040"/>
  <rect x="120" y="140" width="10" height="20" fill="#FF4040"/>
  <rect x="140" y="140" width="10" height="20" fill="#FF4040"/>
  
  <!-- Details -->
  <rect x="90" y="100" width="20" height="10" fill="#FF2020"/>
  <rect x="80" y="110" width="40" height="10" fill="#FF2020"/>
</svg>
