<?xml version="1.0" standalone="no"?>
<!DOCTYPE svg PUBLIC "-//W3C//DTD SVG 20010904//EN"
 "http://www.w3.org/TR/2001/REC-SVG-20010904/DTD/svg10.dtd">
<svg version="1.0" xmlns="http://www.w3.org/2000/svg"
 width="512.000000pt" height="512.000000pt" viewBox="0 0 512.000000 512.000000"
 preserveAspectRatio="xMidYMid meet">

<g transform="translate(0.000000,512.000000) scale(0.100000,-0.100000)"
fill="#000000" stroke="none">
<path d="M0 1585 l0 -1585 2560 0 2560 0 0 1585 0 1585 -2560 0 -2560 0 0
-1585z m360 1125 l0 -180 -35 0 -35 0 0 180 0 180 35 0 35 0 0 -180z m90 0 l0
-180 -40 0 -40 0 0 180 0 180 40 0 40 0 0 -180z m80 0 l0 -180 -35 0 -35 0 0
180 0 180 35 0 35 0 0 -180z m80 0 l0 -180 -35 0 -35 0 0 180 0 180 35 0 35 0
0 -180z m90 105 l0 -75 33 -2 32 -1 -32 -4 c-25 -3 -33 -9 -33 -24 0 -12 7
-19 20 -19 11 0 20 -6 20 -14 0 -9 -7 -12 -20 -9 -19 5 -20 0 -20 -66 l0 -71
-40 0 -40 0 0 180 0 180 40 0 40 0 0 -75z m260 -105 l0 -180 -35 0 -35 0 0
180 0 180 35 0 35 0 0 -180z m170 0 l0 -180 -80 0 -80 0 0 180 0 180 80 0 80
0 0 -180z m170 0 l0 -180 -80 0 -80 0 0 180 0 180 80 0 80 0 0 -180z m80 0 l0
-180 -35 0 -35 0 0 180 0 180 35 0 35 0 0 -180z m172 108 c3 -73 3 -73 33 -77
l30 -4 -30 -6 c-35 -7 -48 -41 -16 -41 12 0 21 -4 21 -10 0 -5 -9 -10 -20 -10
-18 0 -20 -7 -20 -70 l0 -70 -80 0 -80 0 0 180 0 180 80 0 79 0 3 -72z m168
-108 l0 -180 -35 0 -35 0 0 180 0 180 35 0 35 0 0 -180z m90 105 l0 -75 30 0
c17 0 30 -4 30 -8 0 -5 -13 -7 -30 -4 -25 4 -30 1 -30 -17 0 -12 6 -21 15 -21
8 0 15 -4 15 -10 0 -5 -7 -10 -15 -10 -12 0 -15 -14 -15 -70 l0 -70 -40 0 -40
0 0 180 0 180 40 0 40 0 0 -75z m720 -105 l0 -180 -35 0 -35 0 0 180 0 180 35
0 35 0 0 -180z m80 0 l0 -180 -35 0 -35 0 0 180 0 180 35 0 35 0 0 -180z m260
0 l0 -180 -125 0 -125 0 0 180 0 180 125 0 125 0 0 -180z m430 0 l0 -180 -125
0 -125 0 0 180 0 180 125 0 125 0 0 -180z m80 0 l0 -180 -35 0 -35 0 0 180 0
180 35 0 35 0 0 -180z m260 0 l0 -180 -125 0 -125 0 0 180 0 180 125 0 125 0
0 -180z m540 0 l0 -180 -40 0 -40 0 0 180 0 180 40 0 40 0 0 -180z m80 0 l0
-180 -35 0 -35 0 0 180 0 180 35 0 35 0 0 -180z m80 0 l0 -180 -35 0 -35 0 0
180 0 180 35 0 35 0 0 -180z m172 108 c3 -73 3 -73 33 -77 l30 -4 -29 -6 c-36
-7 -46 -30 -17 -38 27 -7 27 -19 1 -26 -17 -4 -20 -14 -20 -71 l0 -66 -80 0
-80 0 0 180 0 180 80 0 79 0 3 -72z m258 -108 l0 -180 -35 0 -35 0 0 180 0
180 35 0 35 0 0 -180z m90 105 l0 -75 30 0 c17 0 30 -4 30 -8 0 -5 -13 -7 -30
-4 -25 4 -30 1 -30 -17 0 -14 6 -21 20 -21 11 0 20 -6 20 -14 0 -9 -7 -12 -20
-9 -19 5 -20 0 -20 -66 l0 -71 -40 0 -40 0 0 180 0 180 40 0 40 0 0 -75z
m-1932 -182 l-2 -108 -3 102 c-3 96 -5 102 -26 106 -18 4 -18 4 6 6 l27 1 -2
-107z m770 0 l-2 -108 -3 102 c-3 96 -5 102 -26 106 -18 4 -18 4 6 6 l27 1 -2
-107z m-790 -25 l-2 -83 -3 73 c-2 39 -8 72 -13 72 -6 0 -10 5 -10 10 0 6 7
10 15 10 12 0 15 -15 13 -82z m770 0 l-2 -83 -3 73 c-2 39 -8 72 -13 72 -6 0
-10 5 -10 10 0 6 7 10 15 10 12 0 15 -15 13 -82z m-3408 -383 l0 -185 -40 0
-40 0 0 185 0 185 40 0 40 0 0 -185z m90 0 l0 -185 -40 0 -40 0 0 185 0 185
40 0 40 0 0 -185z m330 0 l0 -185 -35 0 -35 0 0 75 0 75 -47 2 -48 2 48 3 c39
3 47 8 47 24 0 16 -7 19 -45 19 -25 0 -45 5 -45 10 0 6 20 10 45 10 l45 0 0
75 0 75 35 0 35 0 0 -185z m90 110 l0 -75 30 0 c18 0 30 -5 30 -13 0 -9 -10
-12 -30 -9 -25 4 -30 1 -30 -17 0 -13 7 -21 18 -22 16 -1 16 -2 0 -6 -15 -4
-18 -16 -18 -79 l0 -74 -40 0 -40 0 0 185 0 185 40 0 40 0 0 -75z m510 -110
l0 -185 -85 0 -85 0 0 185 0 185 85 0 85 0 0 -185z m500 0 l0 -185 -80 0 -80
0 0 185 0 185 80 0 80 0 0 -185z m630 0 l0 -185 -35 0 -35 0 0 185 0 185 35 0
35 0 0 -185z m90 0 l0 -185 -40 0 -40 0 0 185 0 185 40 0 40 0 0 -185z m330 0
l0 -185 -35 0 -35 0 0 185 0 185 35 0 35 0 0 -185z m90 110 l0 -75 30 0 c17 0
30 -4 30 -10 0 -5 -13 -10 -30 -10 -35 0 -43 -29 -10 -37 18 -5 20 -13 18 -87
l-2 -81 -3 78 c-3 59 -7 77 -18 77 -12 0 -15 -16 -15 -75 l0 -75 -40 0 -40 0
0 185 0 185 40 0 40 0 0 -75z m170 -110 l0 -185 -40 0 -40 0 0 185 0 185 40 0
40 0 0 -185z m80 0 l0 -185 -35 0 -35 0 0 185 0 185 35 0 35 0 0 -185z m960 0
l0 -185 -80 0 -80 0 0 185 0 185 80 0 80 0 0 -185z m420 0 l0 -185 -80 0 -80
0 0 185 0 185 80 0 80 0 0 -185z m250 0 l0 -185 -80 0 -80 0 0 185 0 185 80 0
80 0 0 -185z m-4370 25 c0 -5 -11 -10 -25 -10 -14 0 -25 5 -25 10 0 6 11 10
25 10 14 0 25 -4 25 -10z m80 0 c0 -5 -16 -10 -35 -10 -19 0 -35 5 -35 10 0 6
16 10 35 10 19 0 35 -4 35 -10z m510 0 c0 -5 -25 -10 -55 -10 -30 0 -55 5 -55
10 0 6 25 10 55 10 30 0 55 -4 55 -10z m80 0 c0 -5 -16 -10 -35 -10 -19 0 -35
5 -35 10 0 6 16 10 35 10 19 0 35 -4 35 -10z m260 0 c0 -5 -11 -10 -25 -10
-14 0 -25 5 -25 10 0 6 11 10 25 10 14 0 25 -4 25 -10z m80 0 c0 -5 -16 -10
-35 -10 -19 0 -35 5 -35 10 0 6 16 10 35 10 19 0 35 -4 35 -10z m90 0 c0 -5
-18 -10 -40 -10 -22 0 -40 5 -40 10 0 6 18 10 40 10 22 0 40 -4 40 -10z m40 0
c0 -5 -7 -10 -15 -10 -8 0 -15 5 -15 10 0 6 7 10 15 10 8 0 15 -4 15 -10z
m1100 1 c0 -5 -32 -11 -70 -13 -51 -2 -70 0 -70 10 0 8 21 12 70 12 39 0 70
-4 70 -9z m80 -1 c0 -5 -16 -10 -35 -10 -19 0 -35 5 -35 10 0 6 16 10 35 10
19 0 35 -4 35 -10z m510 0 c0 -5 -11 -10 -25 -10 -14 0 -25 5 -25 10 0 6 11
10 25 10 14 0 25 -4 25 -10z m250 0 c0 -6 -47 -10 -120 -10 -73 0 -120 4 -120
10 0 6 47 10 120 10 73 0 120 -4 120 -10z m120 0 c0 -5 -25 -10 -55 -10 -30 0
-55 5 -55 10 0 6 25 10 55 10 30 0 55 -4 55 -10z m580 0 c0 -5 -9 -10 -20 -10
-18 0 -20 -8 -23 -102 l-3 -103 -2 113 -2 112 25 0 c14 0 25 -4 25 -10z m170
0 c0 -6 -33 -10 -80 -10 -47 0 -80 4 -80 10 0 6 33 10 80 10 47 0 80 -4 80
-10z m230 0 c0 -5 -11 -10 -25 -10 -14 0 -25 5 -25 10 0 6 11 10 25 10 14 0
25 -4 25 -10z m-3020 -50 c0 -5 -12 -10 -27 -9 l-28 1 25 8 c14 4 26 8 28 9 1
1 2 -3 2 -9z m2070 0 c0 -6 -30 -9 -72 -8 l-73 2 70 6 c39 4 71 7 73 8 1 1 2
-2 2 -8z m-3230 -4 c0 -2 -7 -6 -15 -10 -8 -3 -15 -1 -15 4 0 6 7 10 15 10 8
0 15 -2 15 -4z m68 -3 c-10 -2 -28 -2 -40 0 -13 2 -5 4 17 4 22 1 32 -1 23 -4z
m489 0 c-20 -2 -52 -2 -70 0 -17 2 0 4 38 4 39 0 53 -2 32 -4z m101 0 c-10 -2
-28 -2 -40 0 -13 2 -5 4 17 4 22 1 32 -1 23 -4z m272 3 c0 -2 -7 -6 -15 -10
-8 -3 -15 -1 -15 4 0 6 7 10 15 10 8 0 15 -2 15 -4z m68 -3 c-10 -2 -28 -2
-40 0 -13 2 -5 4 17 4 22 1 32 -1 23 -4z m85 0 c-13 -2 -33 -2 -45 0 -13 2 -3
4 22 4 25 0 35 -2 23 -4z m1135 0 c-15 -2 -42 -2 -60 0 -18 2 -6 4 27 4 33 0
48 -2 33 -4z m90 0 c-10 -2 -28 -2 -40 0 -13 2 -5 4 17 4 22 1 32 -1 23 -4z
m522 3 c0 -2 -7 -6 -15 -10 -8 -3 -15 -1 -15 4 0 6 7 10 15 10 8 0 15 -2 15
-4z m193 -3 c-35 -2 -91 -2 -125 0 -35 2 -7 3 62 3 69 0 97 -1 63 -3z m750 -1
c-7 -4 -13 -39 -16 -82 l-3 -75 -2 83 c-2 72 0 82 16 82 11 0 13 -3 5 -8z
m140 1 c-24 -2 -62 -2 -85 0 -24 2 -5 4 42 4 47 0 66 -2 43 -4z m247 -3 c0 -5
-7 -7 -15 -4 -8 4 -15 8 -15 10 0 2 7 4 15 4 8 0 15 -4 15 -10z m-4330 -450
l0 -180 -40 0 -40 0 0 180 0 180 40 0 40 0 0 -180z m170 0 l0 -180 -80 0 -80
0 0 180 0 180 80 0 80 0 0 -180z m80 0 l0 -180 -35 0 -35 0 0 180 0 180 35 0
35 0 0 -180z m170 0 l0 -180 -80 0 -80 0 0 180 0 180 80 0 80 0 0 -180z m90 0
l0 -180 -40 0 -40 0 0 180 0 180 40 0 40 0 0 -180z m440 0 l0 -180 -35 0 -35
0 0 180 0 180 35 0 35 0 0 -180z m90 0 l0 -180 -40 0 -40 0 0 180 0 180 40 0
40 0 0 -180z m530 0 l0 -180 -80 0 -80 0 0 180 0 180 80 0 80 0 0 -180z m37
-92 c-1 -51 -3 -10 -3 92 0 102 2 143 3 93 2 -51 2 -135 0 -185z m763 92 l0
-180 -125 0 -125 0 0 180 0 180 125 0 125 0 0 -180z m80 0 l0 -180 -35 0 -35
0 0 180 0 180 35 0 35 0 0 -180z m260 0 l0 -180 -125 0 -125 0 0 180 0 180
125 0 125 0 0 -180z m57 -92 c-1 -51 -3 -10 -3 92 0 102 2 143 3 93 2 -51 2
-135 0 -185z m193 92 l0 -180 -80 0 -80 0 0 180 0 180 80 0 80 0 0 -180z m250
0 l0 -180 -120 0 -120 0 0 180 0 180 120 0 120 0 0 -180z m90 0 l0 -180 -40 0
-40 0 0 180 0 180 40 0 40 0 0 -180z m80 0 l0 -180 -35 0 -35 0 0 180 0 180
35 0 35 0 0 -180z m450 0 l0 -180 -40 0 -40 0 0 180 0 180 40 0 40 0 0 -180z
m80 0 l0 -180 -35 0 -35 0 0 180 0 180 35 0 35 0 0 -180z m90 0 l0 -180 -40 0
-40 0 0 180 0 180 40 0 40 0 0 -180z m250 0 l0 -180 -120 0 -120 0 0 180 0
180 120 0 120 0 0 -180z m90 0 l0 -180 -40 0 -40 0 0 180 0 180 40 0 40 0 0
-180z m160 0 l0 -180 -35 0 -35 0 0 180 0 180 35 0 35 0 0 -180z m90 0 l0
-180 -40 0 -40 0 0 180 0 180 40 0 40 0 0 -180z m-1157 23 c-7 -2 -21 -2 -30
0 -10 3 -4 5 12 5 17 0 24 -2 18 -5z m-13 -53 c0 -5 -7 -10 -15 -10 -8 0 -15
5 -15 10 0 6 7 10 15 10 8 0 15 -4 15 -10z m-3420 -455 l0 -185 -40 0 -40 0 0
185 0 185 40 0 40 0 0 -185z m90 0 l0 -185 -40 0 -40 0 0 185 0 185 40 0 40 0
0 -185z m330 0 l0 -185 -35 0 -35 0 0 75 0 75 -47 2 -48 2 48 3 c39 3 47 8 47
24 0 16 -7 19 -45 19 -25 0 -45 5 -45 10 0 6 20 10 45 10 l45 0 0 75 0 75 35
0 35 0 0 -185z m90 0 l0 -185 -40 0 -40 0 0 185 0 185 40 0 40 0 0 -185z m440
0 l0 -185 -35 0 -35 0 0 185 0 185 35 0 35 0 0 -185z m90 0 l0 -185 -40 0 -40
0 0 185 0 185 40 0 40 0 0 -185z m530 0 l0 -185 -80 0 -80 0 0 185 0 185 80 0
80 0 0 -185z m37 -92 c-1 -54 -3 -12 -3 92 0 105 2 149 3 98 2 -51 2 -136 0
-190z m673 92 l0 -185 -80 0 -80 0 0 185 0 185 80 0 80 0 0 -185z m430 0 l0
-185 -80 0 -80 0 0 75 0 75 -47 2 -48 2 48 3 c39 3 47 8 47 24 0 16 -7 19 -45
19 -25 0 -45 5 -45 10 0 6 20 10 45 10 l45 0 0 75 0 75 80 0 80 0 0 -185z m57
-92 c-1 -54 -3 -12 -3 92 0 105 2 149 3 98 2 -51 2 -136 0 -190z m533 92 l0
-185 -40 0 -40 0 0 185 0 185 40 0 40 0 0 -185z m80 0 l0 -185 -35 0 -35 0 0
185 0 185 35 0 35 0 0 -185z m450 0 l0 -185 -40 0 -40 0 0 185 0 185 40 0 40
0 0 -185z m80 0 l0 -185 -35 0 -35 0 0 185 0 185 35 0 35 0 0 -185z m340 0 l0
-185 -40 0 -40 0 0 75 0 75 -82 2 -83 2 83 3 c74 3 82 6 82 23 0 18 -7 20 -80
20 -47 0 -80 4 -80 10 0 6 33 10 80 10 l80 0 0 75 0 75 40 0 40 0 0 -185z m90
0 l0 -185 -40 0 -40 0 0 185 0 185 40 0 40 0 0 -185z m160 0 l0 -185 -35 0
-35 0 0 185 0 185 35 0 35 0 0 -185z m90 0 l0 -185 -40 0 -40 0 0 185 0 185
40 0 40 0 0 -185z m-4420 25 c0 -5 -11 -10 -25 -10 -14 0 -25 5 -25 10 0 6 11
10 25 10 14 0 25 -4 25 -10z m80 0 c0 -5 -16 -10 -35 -10 -19 0 -35 5 -35 10
0 6 16 10 35 10 19 0 35 -4 35 -10z m2120 0 c0 -5 -11 -10 -25 -10 -14 0 -25
5 -25 10 0 6 11 10 25 10 14 0 25 -4 25 -10z m80 0 c0 -5 -16 -10 -35 -10 -19
0 -35 5 -35 10 0 6 16 10 35 10 19 0 35 -4 35 -10z m510 0 c0 -5 -25 -10 -55
-10 -30 0 -55 5 -55 10 0 6 25 10 55 10 30 0 55 -4 55 -10z m250 0 c0 -6 -47
-10 -120 -10 -73 0 -120 4 -120 10 0 6 47 10 120 10 73 0 120 -4 120 -10z
m790 0 c0 -5 -11 -10 -25 -10 -14 0 -25 5 -25 10 0 6 11 10 25 10 14 0 25 -4
25 -10z m-3830 -54 c0 -2 -7 -6 -15 -10 -8 -3 -15 -1 -15 4 0 6 7 10 15 10 8
0 15 -2 15 -4z m68 -3 c-10 -2 -28 -2 -40 0 -13 2 -5 4 17 4 22 1 32 -1 23 -4z
m2129 1 c-3 -3 -12 -4 -19 -1 -8 3 -5 6 6 6 11 1 17 -2 13 -5z m71 -1 c-10 -2
-28 -2 -40 0 -13 2 -5 4 17 4 22 1 32 -1 23 -4z m489 0 c-20 -2 -52 -2 -70 0
-17 2 0 4 38 4 39 0 53 -2 32 -4z m226 0 c-35 -2 -91 -2 -125 0 -35 2 -7 3 62
3 69 0 97 -1 63 -3z m847 3 c0 -2 -7 -6 -15 -10 -8 -3 -15 -1 -15 4 0 6 7 10
15 10 8 0 15 -2 15 -4z m-4000 -456 l0 -180 -40 0 -40 0 0 180 0 180 40 0 40
0 0 -180z m90 0 l0 -180 -40 0 -40 0 0 180 0 180 40 0 40 0 0 -180z m350 0 l0
-180 -40 0 -40 0 0 180 0 180 40 0 40 0 0 -180z m80 0 l0 -180 -35 0 -35 0 0
180 0 180 35 0 35 0 0 -180z m530 0 l0 -180 -80 0 -80 0 0 180 0 180 80 0 80
0 0 -180z m450 0 l0 -180 -40 0 -40 0 0 180 0 180 40 0 40 0 0 -180z m170 0
l0 -180 -80 0 -80 0 0 180 0 180 80 0 80 0 0 -180z m170 0 l0 -180 -80 0 -80
0 0 180 0 180 80 0 80 0 0 -180z m80 0 l0 -180 -35 0 -35 0 0 180 0 180 35 0
35 0 0 -180z m90 105 l0 -75 30 0 30 0 -2 -107 -2 -108 -3 103 c-4 101 -4 102
-28 102 -18 0 -25 -5 -25 -20 0 -11 7 -20 15 -20 8 0 15 -4 15 -10 0 -5 -7
-10 -15 -10 -12 0 -15 -14 -15 -70 l0 -70 -40 0 -40 0 0 180 0 180 40 0 40 0
0 -75z m170 -105 l0 -180 -40 0 -40 0 0 180 0 180 40 0 40 0 0 -180z m80 0 l0
-180 -35 0 -35 0 0 180 0 180 35 0 35 0 0 -180z m350 0 l0 -180 -35 0 -35 0 0
180 0 180 35 0 35 0 0 -180z m90 0 l0 -180 -40 0 -40 0 0 180 0 180 40 0 40 0
0 -180z m170 0 l0 -180 -40 0 -40 0 0 180 0 180 40 0 40 0 0 -180z m80 0 l0
-180 -35 0 -35 0 0 180 0 180 35 0 35 0 0 -180z m340 0 l0 -180 -165 0 -165 0
0 180 0 180 165 0 165 0 0 -180z m80 0 l0 -180 -35 0 -35 0 0 180 0 180 35 0
35 0 0 -180z m540 0 l0 -180 -85 0 -85 0 0 180 0 180 85 0 85 0 0 -180z m350
0 l0 -180 -35 0 -35 0 0 180 0 180 35 0 35 0 0 -180z m80 0 l0 -180 -35 0 -35
0 0 180 0 180 35 0 35 0 0 -180z m67 -92 c-1 -51 -3 -10 -3 92 0 102 2 143 3
93 2 -51 2 -135 0 -185z m193 92 l0 -180 -80 0 -80 0 0 180 0 180 80 0 80 0 0
-180z m37 -92 c-1 -51 -3 -10 -3 92 0 102 2 143 3 93 2 -51 2 -135 0 -185z
m20 0 c-1 -51 -3 -10 -3 92 0 102 2 143 3 93 2 -51 2 -135 0 -185z m-2064
-421 c18 -4 18 -4 -5 -6 l-28 -1 2 113 2 112 3 -107 c3 -101 5 -107 26 -111z
m1262 63 c30 0 55 -4 55 -10 0 -6 -27 -10 -60 -10 l-60 0 2 88 2 87 3 -77 4
-78 54 0z m555 40 l0 -110 -32 1 c-31 2 -31 2 -5 6 l27 4 0 105 c0 57 2 104 5
104 3 0 5 -49 5 -110z m230 25 c0 -69 -3 -85 -15 -85 -8 0 -15 5 -15 10 0 6 5
10 10 10 6 0 10 32 10 75 0 41 2 75 5 75 3 0 5 -38 5 -85z m20 -25 l0 -110
-27 1 c-24 2 -25 2 -5 6 21 4 22 8 22 109 0 57 2 104 5 104 3 0 5 -49 5 -110z
m-2590 -5 l0 -105 -72 2 -73 2 68 3 67 4 0 99 c0 55 2 100 5 100 3 0 5 -47 5
-105z m530 -35 c6 0 10 -4 10 -10 0 -5 -7 -10 -15 -10 -12 0 -15 15 -13 83 l2
82 3 -72 c2 -40 8 -73 13 -73z m-2600 -11 c0 -5 -7 -9 -15 -9 -8 0 -15 7 -15
15 0 9 6 12 15 9 8 -4 15 -10 15 -15z m1090 0 c0 -5 -34 -9 -75 -9 -53 0 -75
4 -75 13 0 9 20 11 75 9 41 -2 75 -8 75 -13z m410 0 c0 -5 -7 -9 -15 -9 -8 0
-15 7 -15 15 0 9 6 12 15 9 8 -4 15 -10 15 -15z m1240 6 c0 -12 -13 -15 -60
-15 -77 0 -79 18 -2 23 31 2 58 4 60 5 1 1 2 -5 2 -13z m-2620 -5 c0 -5 -25
-10 -55 -10 -30 0 -55 5 -55 10 0 6 25 10 55 10 30 0 55 -4 55 -10z m320 0 c0
-5 -7 -10 -15 -10 -8 0 -15 5 -15 10 0 6 7 10 15 10 8 0 15 -4 15 -10z m80 0
c0 -5 -16 -10 -35 -10 -19 0 -35 5 -35 10 0 6 16 10 35 10 19 0 35 -4 35 -10z
m40 0 c0 -5 -7 -10 -15 -10 -8 0 -15 5 -15 10 0 6 7 10 15 10 8 0 15 -4 15
-10z m1110 0 c0 -6 -33 -10 -80 -10 -47 0 -80 4 -80 10 0 6 33 10 80 10 47 0
80 -4 80 -10z m170 0 c0 -6 -33 -10 -80 -10 -47 0 -80 4 -80 10 0 6 33 10 80
10 47 0 80 -4 80 -10z m80 0 c0 -5 -16 -10 -35 -10 -19 0 -35 5 -35 10 0 6 16
10 35 10 19 0 35 -4 35 -10z m120 0 c0 -5 -25 -10 -55 -10 -30 0 -55 5 -55 10
0 6 25 10 55 10 30 0 55 -4 55 -10z m140 0 c0 -5 -7 -10 -15 -10 -8 0 -15 5
-15 10 0 6 7 10 15 10 8 0 15 -4 15 -10z m80 0 c0 -5 -16 -10 -35 -10 -19 0
-35 5 -35 10 0 6 16 10 35 10 19 0 35 -4 35 -10z m40 0 c0 -5 -7 -10 -15 -10
-8 0 -15 5 -15 10 0 6 7 10 15 10 8 0 15 -4 15 -10z m570 0 c0 -5 -7 -10 -15
-10 -8 0 -15 5 -15 10 0 6 7 10 15 10 8 0 15 -4 15 -10z m80 0 c0 -5 -16 -10
-35 -10 -19 0 -35 5 -35 10 0 6 16 10 35 10 19 0 35 -4 35 -10z m340 0 c0 -6
-62 -10 -165 -10 -103 0 -165 4 -165 10 0 6 62 10 165 10 103 0 165 -4 165
-10z m120 0 c0 -5 -25 -10 -55 -10 -30 0 -55 5 -55 10 0 6 25 10 55 10 30 0
55 -4 55 -10z m530 0 c0 -5 -4 -10 -10 -10 -5 0 -10 5 -10 10 0 6 5 10 10 10
6 0 10 -4 10 -10z m320 0 c0 -5 -7 -10 -15 -10 -8 0 -15 5 -15 10 0 6 7 10 15
10 8 0 15 -4 15 -10z m80 0 c0 -5 -16 -10 -35 -10 -19 0 -35 5 -35 10 0 6 16
10 35 10 19 0 35 -4 35 -10z m40 0 c0 -5 -7 -10 -15 -10 -8 0 -15 5 -15 10 0
6 7 10 15 10 8 0 15 -4 15 -10z m220 0 c0 -5 -25 -10 -55 -10 -30 0 -55 5 -55
10 0 6 25 10 55 10 30 0 55 -4 55 -10z m-4600 -56 c0 -2 -11 -4 -25 -4 -14 0
-25 4 -25 9 0 4 11 6 25 3 14 -2 25 -6 25 -8z m440 0 c0 -2 -11 -4 -25 -4 -14
0 -25 4 -25 9 0 4 11 6 25 3 14 -2 25 -6 25 -8z m645 2 c17 -1 -14 -4 -67 -4
-54 -1 -98 1 -98 6 0 6 94 6 165 -2z m415 -2 c0 -2 -11 -4 -25 -4 -14 0 -25 4
-25 9 0 4 11 6 25 3 14 -2 25 -6 25 -8z m680 0 c0 -2 -13 -4 -30 -4 -16 0 -30
4 -30 8 0 5 14 7 30 4 17 -2 30 -6 30 -8z m140 6 c0 -5 -12 -10 -27 -9 l-28 1
25 8 c14 4 26 8 28 9 1 1 2 -3 2 -9z m440 0 c0 -6 -30 -9 -72 -8 l-73 2 70 6
c39 4 71 7 73 8 1 1 2 -2 2 -8z m1135 -4 c11 -2 -13 -4 -52 -5 -40 0 -73 2
-73 7 0 6 79 5 125 -2z m365 -2 c0 -2 -11 -4 -25 -4 -14 0 -25 4 -25 9 0 4 11
6 25 3 14 -2 25 -6 25 -8z m325 2 c11 -2 -13 -4 -52 -5 -40 0 -73 2 -73 7 0 6
79 5 125 -2z m-4478 -3 c-20 -2 -52 -2 -70 0 -17 2 0 4 38 4 39 0 53 -2 32 -4z
m401 0 c-10 -2 -28 -2 -40 0 -13 2 -5 4 17 4 22 1 32 -1 23 -4z m65 0 c-7 -2
-21 -2 -30 0 -10 3 -4 5 12 5 17 0 24 -2 18 -5z m1060 0 c-24 -2 -62 -2 -85 0
-24 2 -5 4 42 4 47 0 66 -2 43 -4z m170 0 c-24 -2 -62 -2 -85 0 -24 2 -5 4 42
4 47 0 66 -2 43 -4z m105 0 c-10 -2 -28 -2 -40 0 -13 2 -5 4 17 4 22 1 32 -1
23 -4z m340 0 c-10 -2 -28 -2 -40 0 -13 2 -5 4 17 4 22 1 32 -1 23 -4z m615 0
c-7 -2 -21 -2 -30 0 -10 3 -4 5 12 5 17 0 24 -2 18 -5z m75 0 c-10 -2 -28 -2
-40 0 -13 2 -5 4 17 4 22 1 32 -1 23 -4z m275 0 c-45 -2 -122 -2 -170 0 -48 1
-11 3 82 3 94 0 133 -2 88 -3z m184 0 c-20 -2 -52 -2 -70 0 -17 2 0 4 38 4 39
0 53 -2 32 -4z m556 0 c-7 -2 -19 -2 -25 0 -7 3 -2 5 12 5 14 0 19 -2 13 -5z
m375 0 c-10 -2 -28 -2 -40 0 -13 2 -5 4 17 4 22 1 32 -1 23 -4z"/>
</g>
</svg>
